<svg width="63" height="60" viewBox="0 0 63 60" fill="none" xmlns="http://www.w3.org/2000/svg">
<path d="M31.0964 3.55201C31.2961 3.27883 31.7039 3.27883 31.9036 3.55201L42.1557 17.5733C42.2174 17.6577 42.304 17.7206 42.4034 17.7532L58.9065 23.1707C59.228 23.2763 59.354 23.6641 59.1559 23.9384L48.9889 38.0216C48.9277 38.1063 48.8947 38.2082 48.8943 38.3127L48.8417 55.6822C48.8407 56.0206 48.5108 56.2603 48.1887 56.1567L31.6531 50.8392C31.5535 50.8072 31.4465 50.8072 31.3469 50.8392L14.8113 56.1567C14.4892 56.2603 14.1593 56.0206 14.1583 55.6822L14.1057 38.3127C14.1053 38.2082 14.0723 38.1063 14.0111 38.0216L3.8441 23.9384C3.64601 23.6641 3.77202 23.2763 4.09355 23.1707L20.5966 17.7532C20.696 17.7206 20.7826 17.6577 20.8443 17.5733L31.0964 3.55201Z" stroke="#222222" stroke-width="6"/>
</svg>
