<svg width="67" height="64" viewBox="0 0 67 64" fill="none" xmlns="http://www.w3.org/2000/svg">
<path d="M33.0964 5.55201C33.2961 5.27883 33.7039 5.27883 33.9036 5.55201L44.1557 19.5733C44.2174 19.6577 44.304 19.7206 44.4034 19.7532L60.9065 25.1707C61.228 25.2763 61.354 25.6641 61.1559 25.9384L50.9889 40.0216C50.9277 40.1063 50.8947 40.2082 50.8943 40.3127L50.8417 57.6822C50.8407 58.0206 50.5108 58.2603 50.1887 58.1567L33.6531 52.8392C33.5535 52.8072 33.4465 52.8072 33.3469 52.8392L16.8113 58.1567C16.4892 58.2603 16.1593 58.0206 16.1583 57.6822L16.1057 40.3127C16.1053 40.2082 16.0723 40.1063 16.0111 40.0216L5.8441 25.9384C5.64601 25.6641 5.77202 25.2763 6.09355 25.1707L22.5966 19.7532C22.696 19.7206 22.7826 19.6577 22.8443 19.5733L33.0964 5.55201Z" stroke="#222222" stroke-width="10"/>
</svg>
