<svg width="78" height="88" viewBox="0 0 78 88" fill="none" xmlns="http://www.w3.org/2000/svg">
<path d="M11.375 16.5H19.6304C20.3502 16.5 20.7101 16.5 20.9763 16.699C21.2426 16.8979 21.3445 17.243 21.5485 17.9333L24.375 27.5" stroke="#222222" stroke-width="5" stroke-linecap="round"/>
<path d="M56.875 64.1666H23.8014C22.5752 64.1666 21.9621 64.1666 21.6621 63.7652C21.3622 63.3638 21.5359 62.7759 21.8833 61.5999L23.528 56.0332C23.9359 54.6527 24.1399 53.9624 24.6723 53.5645C25.2048 53.1666 25.9246 53.1666 27.3641 53.1666H47.125" stroke="#222222" stroke-width="5" stroke-linecap="round" stroke-linejoin="round"/>
<path d="M51.1672 53.1667H30.3844C29.0493 53.1667 28.3818 53.1667 27.869 52.8129C27.3563 52.4592 27.1192 51.8352 26.6451 50.5871L19.4193 31.5653C18.7181 29.7194 18.3675 28.7965 18.8147 28.1482C19.2619 27.5 20.2492 27.5 22.2238 27.5H61.7427C63.9293 27.5 65.0227 27.5 65.4618 28.2147C65.901 28.9294 65.407 29.9048 64.419 31.8555L54.7356 50.974C54.1951 52.0411 53.9248 52.5747 53.4431 52.8707C52.9614 53.1667 52.3633 53.1667 51.1672 53.1667Z" stroke="#222222" stroke-width="5" stroke-linecap="round"/>
<ellipse cx="55.25" cy="73.3333" rx="3.25" ry="3.66667" fill="#222222"/>
<ellipse cx="29.25" cy="73.3333" rx="3.25" ry="3.66667" fill="#222222"/>
</svg>
